#N canvas -8 0 1523 762 10;
#X obj 0 134 cnv 15 1444 361 empty empty empty 20 12 0 14 #ff8000 #404040
0;
#X obj 0 0 cnv 15 1444 137 empty empty empty 600 12 0 20 #e0e0e0 #404040
0;
#N canvas 0 0 1522 762 engine 0;
#X obj 439 -120 gate 1 0, f 35;
#X obj 259 -155 netclient;
#X floatatom 310 -133 5 0 0 0 - - - 0, f 5;
#X msg 222 -334 disconnect;
#X obj 205 87 bng 37 250 50 0 empty empty empty 17 7 0 10 #fcfcfc #000000
#000000;
#X obj 258 -183 gate 1 0;
#X msg 257 -210 1;
#X msg 571 181 Invalid authentication..Disconnecting;
#X msg 222 -210 0;
#X obj 204 66 gate 1 1, f 9;
#X msg 203 45 0;
#X msg 96 42 1;
#X obj 88 160 sel 1;
#X msg 89 181 Successfully connected..Authenticating;
#X msg 348 181 Authenticated..Welcome to the chat!;
#X symbolatom 316 -726 76 0 0 0 - - - 0, f 76;
#X obj 316 -403 list prepend send;
#X obj 316 -380 list trim;
#X symbolatom 248 -725 10 0 0 0 - - - 0, f 10;
#X obj 317 -423 list prepend;
#X obj 248 -448 sprintf %s:;
#X obj 348 205 print SERVER;
#X msg 205 128 send auth 999;
#X obj 396 -143 r \$0-discgates;
#X obj 329 -85 s \$0-discgates;
#X obj 257 -235 r \$0-chatgates;
#X obj 389 121 s \$0-chatgates;
#X obj 350 0 t b 0 1;
#X obj 238 -300 s \$0-authgates;
#X obj 97 22 r \$0-authgates;
#X obj 204 153 s \$0-discgates-data;
#X obj 490 -144 r \$0-discgates-data;
#X obj 442 67 t b b;
#X obj 418 90 s \$0-disconnect;
#X obj 222 -371 r \$0-disconnect;
#X obj 395 -170 r \$0-game-input;
#X obj 395 -193 r \$0-game-commands;
#X obj 58 -638 r \$0-connect;
#X obj 58 -615 sel 1 0;
#X obj 248 -760 r \$0-chatname;
#X obj 339 -758 r \$0-chattext;
#X obj 310 -106 t f f f;
#X obj 464 -87 sel 1 0;
#X msg 602 -73 color 16 22 22;
#X obj 807 -52 s \$0-connectUI;
#X obj 140 -614 t b;
#X obj 140 -592 delay 500;
#X msg 181 -615 stop;
#X msg 697 -72 color 13 22 22 \, 0;
#X msg 50 -231 connect localhost 3007;
#X obj 1077 601 fluid~ TimGM6mb.sf2;
#X obj 947 460 makenote;
#X obj 694 -653 output~;
#X msg 1357 463 500;
#X msg 1389 464 1000;
#X msg 1423 464 3000;
#X obj 1357 439 bng 20 250 50 0 empty empty empty 17 7 0 10 #fcfcfc
#000000 #000000;
#X obj 1389 439 bng 21 250 50 0 empty empty empty 17 7 0 10 #fcfcfc
#000000 #000000;
#X obj 1423 439 bng 21 250 50 0 empty empty empty 17 7 0 10 #fcfcfc
#000000 #000000;
#X floatatom 1299 260 5 0 0 0 - - - 0, f 5;
#X obj 1299 212 key;
#X msg 1107 62 60;
#X msg 1133 36 61;
#X msg 1160 62 62;
#X msg 1184 34 63;
#X msg 1212 63 64;
#X msg 1246 62 65;
#X msg 1270 37 66;
#X msg 1296 63 67;
#X msg 1319 36 68;
#X msg 1342 64 69;
#X msg 1368 38 70;
#X msg 1394 64 71;
#X msg 1424 64 72;
#X msg 1014 64 59;
#X msg 984 64 58;
#X msg 959 38 57;
#X msg 932 64 56;
#X msg 909 36 55;
#X msg 886 63 54;
#X msg 860 37 53;
#X msg 836 62 52;
#X msg 802 63 51;
#X msg 774 34 50;
#X msg 750 62 49;
#X msg 723 36 48;
#X dropdown 911 -651 6 1 0 0 - - -, f 6;
#X msg 732 394 names 100 500 1000 2000;
#X obj 729 423 select 100 500 1000 2000;
#X msg 1323 462 100;
#X obj 1323 439 bng 24 250 50 0 empty empty empty 17 7 0 10 #fcfcfc
#000000 #000000;
#X obj 518 -690 bng 91 250 50 0 empty empty ON/OFF 12 44 0 20 #fcfcfc
#000000 #000000;
#X floatatom 1540 389 5 0 0 0 - - - 0, f 5;
#X dropdown 1015 -651 6 1 0 0 - - -, f 6;
#X msg 1443 342 1;
#X msg 1482 344 26;
#X obj 707 -5 print CHAT;
#X obj 1486 212 writesf~;
#X msg 1498 191 open -bytes 4 /tmp/\$1.wav, f 26;
#X msg 1462 129 start;
#X msg 1477 149 stop;
#X msg 1494 168 print;
#X obj 1223 -690 bng 73 250 50 0 empty empty START\ RECORDING -13 82
0 10 #80ff00 #000000 #000000;
#X obj 1306 -690 bng 74 250 50 0 empty empty STOP\ RECORDING 0 82 0
10 #ff0000 #000000 #000000;
#X symbolatom 1387 -655 32 0 0 0 - - - 0, f 32;
#X text 1387 -679 Write file name before recording;
#X dropdown 1107 -651 13 1 0 0 - - -, f 13;
#X obj 780 346 select HigherOctaves MiddleOctaves LowerOctaves;
#X text 891 -677 Lenght of Notes;
#X text 992 -677 Instrument Select;
#X text 1108 -677 Octave Select;
#X text 701 -679 Output Volume;
#X obj 947 507 pack 0 0 0;
#X msg 947 529 \$3 \$1 \$2;
#X obj 1543 515 pack 0 0;
#X obj 1053 276 gate 1 0;
#X obj 1179 277 gate 1 0;
#X msg 1026 242 1;
#X msg 1057 243 0;
#X msg 1102 243 1;
#X msg 1133 244 0;
#X msg 1175 246 1;
#X msg 1212 247 0;
#X obj 1053 301 + 12;
#X obj 1179 304 - 12;
#X obj 1116 275 gate 1 1;
#X msg 1543 538 prog \$2 \$1;
#X obj 1167 -548 cnv 15 49 199 empty e2 empty 20 12 0 14 #c0c0c0 #404040
0;
#X obj 1167 -550 ggee/image @pd_extra/ggee/empty_image.png 0 1 49 199
empty empty empty 49 199 0 0 10 #000000 15 186 12.5 12.5 0 1 0;
#X obj 1441 -549 cnv 15 49 199 empty c3 empty 20 12 0 14 #c0c0c0 #404040
0;
#X obj 1386 -549 cnv 15 49 199 empty b2 empty 20 12 0 14 #c0c0c0 #404040
0;
#X obj 1331 -549 cnv 15 49 199 empty a2 empty 20 12 0 14 #c0c0c0 #404040
0;
#X obj 1276 -548 cnv 15 49 199 empty g2 empty 20 12 0 14 #c0c0c0 #404040
0;
#X obj 1222 -548 cnv 15 49 199 empty f2 empty 20 12 0 14 #c0c0c0 #404040
0;
#X obj 1113 -548 cnv 15 49 199 empty d2 empty 20 12 0 14 #c0c0c0 #404040
0;
#X obj 1058 -549 cnv 15 49 199 empty c2 empty 20 12 0 14 #c0c0c0 #404040
0;
#X obj 1004 -549 cnv 15 49 199 empty b1 empty 20 12 0 14 #c0c0c0 #404040
0;
#X obj 949 -549 cnv 15 49 199 empty a1 empty 20 12 0 14 #c0c0c0 #404040
0;
#X obj 894 -549 cnv 15 49 199 empty g1 empty 20 12 0 14 #c0c0c0 #404040
0;
#X obj 839 -549 cnv 15 49 199 empty f1 empty 20 12 0 14 #c0c0c0 #404040
0;
#X obj 784 -549 cnv 15 49 199 empty e1 empty 20 12 0 14 #c0c0c0 #404040
0;
#X obj 730 -549 cnv 15 49 199 empty d1 empty 20 12 0 14 #c0c0c0 #404040
0;
#X obj 675 -549 cnv 15 49 199 empty c1 empty 20 12 0 14 #c0c0c0 #404040
0;
#X obj 730 -550 ggee/image @pd_extra/ggee/empty_image.png 0 1 49 199
empty empty empty 49 199 0 0 10 #000000 15 186 12.5 12.5 0 1 0;
#X obj 784 -549 ggee/image @pd_extra/ggee/empty_image.png 0 1 49 199
empty empty empty 49 199 0 0 10 #000000 15 186 12.5 12.5 0 1 0;
#X obj 839 -549 ggee/image @pd_extra/ggee/empty_image.png 0 1 49 199
empty empty empty 49 199 0 0 10 #000000 15 186 12.5 12.5 0 1 0;
#X obj 893 -549 ggee/image @pd_extra/ggee/empty_image.png 0 1 49 199
empty empty empty 49 199 0 0 10 #000000 15 186 12.5 12.5 0 1 0;
#X obj 949 -549 ggee/image @pd_extra/ggee/empty_image.png 0 1 49 199
empty empty empty 49 199 0 0 10 #000000 15 186 12.5 12.5 0 1 0;
#X obj 1005 -550 ggee/image @pd_extra/ggee/empty_image.png 0 1 49 199
empty empty empty 49 199 0 0 10 #000000 15 186 12.5 12.5 0 1 0;
#X obj 1059 -550 ggee/image @pd_extra/ggee/empty_image.png 0 1 49 199
empty empty empty 49 199 0 0 10 #000000 15 186 12.5 12.5 0 1 0;
#X obj 1113 -550 ggee/image @pd_extra/ggee/empty_image.png 0 1 49 199
empty empty empty 49 199 0 0 10 #000000 15 186 12.5 12.5 0 1 0;
#X obj 1223 -549 ggee/image @pd_extra/ggee/empty_image.png 0 1 49 199
empty empty empty 49 199 0 0 10 #000000 15 186 12.5 12.5 0 1 0;
#X obj 1278 -549 ggee/image @pd_extra/ggee/empty_image.png 0 1 49 199
empty empty empty 49 199 0 0 10 #000000 15 186 12.5 12.5 0 1 0;
#X obj 1330 -549 ggee/image @pd_extra/ggee/empty_image.png 0 1 49 199
empty empty empty 49 199 0 0 10 #000000 15 186 12.5 12.5 0 1 0;
#X obj 1387 -549 ggee/image @pd_extra/ggee/empty_image.png 0 1 49 199
empty empty empty 49 199 0 0 10 #000000 15 186 12.5 12.5 0 1 0;
#X obj 1440 -549 ggee/image @pd_extra/ggee/empty_image.png 0 1 49 199
empty empty empty 49 199 0 0 10 #000000 15 186 12.5 12.5 0 1 0;
#X obj 674 -549 ggee/image @pd_extra/ggee/empty_image.png 0 1 49 199
empty empty empty 49 199 0 0 10 #000000 15 186 12.5 12.5 0 1 0;
#X obj 767 -549 cnv 15 29 114 empty d\$1 empty 20 12 0 14 #000000 #404040
0;
#X obj 877 -549 cnv 15 29 114 empty f\$1 empty 20 12 0 14 #000000 #404040
0;
#X obj 933 -549 cnv 15 29 114 empty g\$1 empty 20 12 0 14 #000000 #404040
0;
#X obj 986 -549 cnv 15 29 114 empty a\$1 empty 20 12 0 14 #000000 #404040
0;
#X obj 1096 -549 cnv 15 29 114 empty c\$2 empty 20 12 0 14 #000000
#404040 0;
#X obj 1150 -548 cnv 15 29 114 empty d\$2 empty 20 12 0 14 #000000
#404040 0;
#X obj 1259 -549 cnv 15 29 114 empty f\$1 empty 20 12 0 14 #000000
#404040 0;
#X obj 1314 -549 cnv 15 29 114 empty g\$1 empty 20 12 0 14 #000000
#404040 0;
#X obj 1368 -550 cnv 15 29 114 empty a\$2 empty 20 12 0 14 #000000
#404040 0;
#X obj 714 -549 cnv 15 29 114 empty c\$1 empty 20 12 0 14 #000000 #404040
0;
#X obj 714 -550 ggee/image @pd_extra/ggee/empty_image.png 0 1 29 114
empty empty empty 29 114 0 0 10 #ffffff 8 102 12.5 12.5 0 1 0;
#X obj 767 -550 ggee/image @pd_extra/ggee/empty_image.png 0 1 29 114
empty empty empty 29 114 0 0 10 #ffffff 8 102 12.5 12.5 0 1 0;
#X obj 877 -550 ggee/image @pd_extra/ggee/empty_image.png 0 1 29 114
empty empty empty 29 114 0 0 10 #ffffff 8 102 12.5 12.5 0 1 0;
#X obj 933 -550 ggee/image @pd_extra/ggee/empty_image.png 0 1 29 114
empty empty empty 29 114 0 0 10 #ffffff 8 102 12.5 12.5 0 1 0;
#X obj 986 -550 ggee/image @pd_extra/ggee/empty_image.png 0 1 29 114
empty empty empty 29 114 0 0 10 #ffffff 8 102 12.5 12.5 0 1 0;
#X obj 1096 -550 ggee/image @pd_extra/ggee/empty_image.png 0 1 29 114
empty empty empty 29 114 0 0 10 #ffffff 8 102 12.5 12.5 0 1 0;
#X obj 1150 -548 ggee/image @pd_extra/ggee/empty_image.png 0 1 29 114
empty empty empty 29 114 0 0 10 #ffffff 8 102 12.5 12.5 0 1 0;
#X obj 1259 -549 ggee/image @pd_extra/ggee/empty_image.png 0 1 29 114
empty empty empty 29 114 0 0 10 #ffffff 8 102 12.5 12.5 0 1 0;
#X obj 1314 -550 ggee/image @pd_extra/ggee/empty_image.png 0 1 29 114
empty empty empty 29 114 0 0 10 #ffffff 8 102 12.5 12.5 0 1 0;
#X obj 1368 -550 ggee/image @pd_extra/ggee/empty_image.png 0 1 29 114
empty empty empty 29 114 0 0 10 #ffffff 8 102 12.5 12.5 0 1 0;
#X msg 969 417 127;
#X msg 777 320 names MiddleOctaves HigherOctaves LowerOctaves;
#X msg 1122 385 send %note% \$1;
#X obj 2747 -370 gate 1 0;
#X obj 2748 -317 gate 1 0;
#X obj 2745 -257 gate 1 0;
#X obj 2743 -201 gate 1 0;
#X obj 2760 -138 gate 1 0;
#X obj 2761 -69 gate 1 0;
#X obj 2786 -11 gate 1 0;
#X obj 2768 45 gate 1 0;
#X obj 2739 94 gate 1 0;
#X msg 2732 -403 1;
#X msg 2763 -403 0;
#X msg 2733 -343 1;
#X msg 2764 -343 0;
#X msg 2729 -284 1;
#X msg 2760 -284 0;
#X msg 2723 -224 1;
#X msg 2754 -224 0;
#X msg 2743 -173 1;
#X msg 2774 -173 0;
#X msg 2736 -98 1;
#X msg 2767 -98 0;
#X msg 2762 -39 1;
#X msg 2793 -39 0;
#X msg 2749 15 1;
#X msg 2780 15 0;
#X msg 2714 67 1;
#X msg 2745 67 0;
#X dropdown 813 -652 6 1 0 0 - - -, f 6;
#X msg 818 -736 names 1 2 3 4 5 6 7 8 9;
#X obj 2345 -596 select 1 2 3 4 5 6 7 8 9;
#X msg 2239 -289 send %channel% 2;
#X msg 2239 -238 send %channel% 3;
#X msg 2238 -189 send %channel% 4;
#X msg 2239 -133 send %channel% 5;
#X msg 2237 -79 send %channel% 6;
#X msg 2236 -26 send %channel% 7;
#X msg 2240 32 send %channel% 8;
#X msg 2237 82 send %channel% 9;
#X obj 1921 -329 bng 104 250 50 0 empty empty empty 17 7 0 10 #fcfcfc
#000000 #000000;
#X msg 1540 414 send %instrument% \$1;
#X floatatom 608 1 5 0 0 0 - - - 0, f 5;
#X obj 1775 -336 t b b;
#X obj 696 -327 t b b;
#X obj 751 -322 t b b;
#X obj 803 -324 t b b;
#X obj 857 -322 t b b;
#X obj 911 -319 t b b;
#X obj 962 -317 t b b;
#X obj 1012 -317 t b b;
#X obj 1072 -313 t b b;
#X obj 1129 -306 t b b;
#X obj 1171 -307 t b b;
#X obj 1231 -306 t b b;
#X obj 1284 -309 t b b;
#X obj 1341 -307 t b b;
#X obj 1398 -307 t b b;
#X obj 1442 -306 t b b;
#X obj 1321 -269 t b b;
#X obj 716 -275 t b b;
#X obj 772 -274 t b b;
#X obj 878 -267 t b b;
#X obj 934 -268 t b b;
#X obj 991 -271 t b b;
#X obj 1265 -271 t b b;
#X obj 1371 -268 t b b;
#X obj 1092 -271 t b b;
#X obj 1142 -270 t b b;
#X dropdown 1593 -659 6 1 0 0 - - -, f 6;
#X text 793 -679 Select Channel;
#X msg 1785 233 color #f00;
#X msg 51 -364 connect 52.142.14.115 3007;
#X obj 1718 357 s c1;
#X obj 1758 357 s d1;
#X obj 1797 356 s e1;
#X obj 1837 355 s f1;
#X obj 1875 355 s g1;
#X obj 1913 355 s a1;
#X obj 1951 355 s b1;
#X obj 1987 355 s c2;
#X obj 2023 355 s d2;
#X obj 2060 355 s e2;
#X obj 2096 355 s f2;
#X obj 2130 355 s g2;
#X obj 2167 355 s a2;
#X obj 2203 356 s b2;
#X obj 2237 355 s c3;
#X obj 2292 360 s c\$1;
#X obj 2340 357 s d\$1;
#X obj 2409 355 s f\$1;
#X obj 2455 354 s g\$1;
#X obj 2500 355 s a\$1;
#X obj 2555 352 s c\$2;
#X obj 2599 351 s d\$2;
#X obj 2664 355 s f\$2;
#X obj 2706 357 s g\$2;
#X obj 2746 356 s a\$2;
#X msg 1858 233 color #f00;
#X msg 1939 230 color #f00;
#X floatatom 539 7 5 0 0 0 - - - 0, f 5;
#X floatatom 480 10 5 0 0 0 - - - 0, f 5;
#X msg 2240 -345 send %channel% 1;
#X msg 2285 314 color #0f0;
#X msg 2344 335 color #0f0;
#X msg 2393 302 color #0f0;
#X msg 2447 324 color #0f0;
#X msg 2490 300 color #0f0;
#X msg 2543 321 color #0f0;
#X msg 2595 296 color #0f0;
#X msg 2656 317 color #0f0;
#X msg 2699 289 color #0f0;
#X msg 2742 334 color #0f0;
#X msg 2311 226 color #c0c0c0;
#X msg 2427 226 color #000000;
#X msg 1558 342 119;
#X msg 1447 283 names Piano Guitar SynthDrum Trumpet;
#X obj 1437 311 select Piano Guitar SynthDrum Trumpet;
#X msg 1600 341 57;
#X obj 259 -54 route auth? authorizationOK authorizationError %note%
%channel% %instrument% %nousers%, f 88;
#X floatatom 664 -8 5 0 0 0 - - - 0, f 5;
#X obj 1843 -682 cnv 15 42 38 empty chan7 7 20 12 0 20 #ff0000 #404040
0;
#X obj 1844 -635 cnv 15 42 38 empty chan8 8 20 12 0 20 #ff0000 #404040
0;
#X obj 1845 -590 cnv 15 42 38 empty chan9 9 20 12 0 20 #ff0000 #404040
0;
#X obj 1790 -680 cnv 15 42 38 empty chan4 4 20 12 0 20 #ff0000 #404040
0;
#X obj 1791 -634 cnv 15 42 38 empty chan5 5 20 12 0 20 #ff0000 #404040
0;
#X obj 1791 -589 cnv 15 42 38 empty chan6 6 20 12 0 20 #ff0000 #404040
0;
#X obj 1739 -589 cnv 15 42 38 empty chan3 3 20 12 0 20 #ff0000 #404040
0;
#X obj 1738 -635 cnv 15 42 38 empty chan2 2 20 12 0 20 #ff0000 #404040
0;
#X obj 1738 -679 cnv 15 42 38 empty chan1 1 20 12 0 20 #ff0000 #000000
0;
#X msg 1983 -629 color #008000;
#X obj 1960 -598 s chan1;
#X obj 1960 -573 s chan2;
#X obj 1962 -547 s chan3;
#X obj 1960 -523 s chan4;
#X obj 2041 -599 s chan5;
#X obj 2041 -574 s chan6;
#X obj 2041 -549 s chan7;
#X obj 2041 -524 s chan8;
#X obj 2041 -499 s chan9;
#X msg 2182 -618 color #008000;
#X msg 2190 -594 color #008000;
#X msg 2196 -572 color #008000;
#X msg 2177 -542 color #008000;
#X msg 2128 -506 color #008000;
#X msg 2116 -468 color #008000;
#X msg 2004 -404 color #008000;
#X msg 1980 -457 color #008000;
#X obj 2003 -723 gate 1 0;
#X msg 1963 -737 0;
#X msg 2000 -748 1;
#X obj 2124 -724 gate 1 0;
#X msg 2084 -738 0;
#X msg 2121 -749 1;
#X obj 2228 -723 gate 1 0;
#X msg 2188 -737 0;
#X msg 2225 -748 1;
#X obj 2336 -719 gate 1 0;
#X msg 2296 -733 0;
#X msg 2333 -744 1;
#X obj 2446 -716 gate 1 0;
#X msg 2406 -730 0;
#X msg 2443 -741 1;
#X obj 2566 -717 gate 1 0;
#X msg 2526 -731 0;
#X msg 2563 -742 1;
#X obj 2431 -657 gate 1 0;
#X msg 2391 -671 0;
#X msg 2428 -682 1;
#X obj 2544 -664 gate 1 0;
#X msg 2504 -678 0;
#X msg 2541 -689 1;
#X obj 2562 -608 gate 1 0;
#X msg 2522 -622 0;
#X msg 2559 -633 1;
#X msg 1956 -684 color #f00;
#X msg 1589 -730 names CMajor EMajo GMajor Clear;
#X obj 1823 184 select CMajor EMajor GMajor Clear;
#X connect 0 0 1 0;
#X connect 1 0 297 0;
#X connect 1 1 2 0;
#X connect 2 0 0 0;
#X connect 2 0 41 0;
#X connect 3 0 0 1;
#X connect 3 0 8 0;
#X connect 3 0 28 0;
#X connect 3 0 353 0;
#X connect 4 0 22 0;
#X connect 5 0 1 0;
#X connect 6 0 5 0;
#X connect 7 0 21 0;
#X connect 8 0 5 0;
#X connect 9 0 4 0;
#X connect 10 0 9 0;
#X connect 11 0 9 0;
#X connect 12 0 13 0;
#X connect 13 0 21 0;
#X connect 14 0 21 0;
#X connect 15 0 19 0;
#X connect 16 0 17 0;
#X connect 17 0 5 1;
#X connect 18 0 20 0;
#X connect 19 0 16 0;
#X connect 20 0 19 1;
#X connect 22 0 30 0;
#X connect 23 0 0 0;
#X connect 25 0 6 0;
#X connect 27 0 14 0;
#X connect 27 1 10 0;
#X connect 27 2 26 0;
#X connect 29 0 11 0;
#X connect 31 0 0 1;
#X connect 32 0 33 0;
#X connect 34 0 3 0;
#X connect 35 0 1 0;
#X connect 36 0 1 0;
#X connect 37 0 38 0;
#X connect 37 0 45 0;
#X connect 38 0 250 0;
#X connect 38 1 3 0;
#X connect 39 0 18 0;
#X connect 40 0 15 0;
#X connect 41 0 12 0;
#X connect 41 1 24 0;
#X connect 41 2 42 0;
#X connect 42 0 43 0;
#X connect 42 0 47 0;
#X connect 42 1 48 0;
#X connect 43 0 44 0;
#X connect 45 0 46 0;
#X connect 46 0 48 0;
#X connect 47 0 46 0;
#X connect 48 0 44 0;
#X connect 49 0 1 0;
#X connect 50 0 52 0;
#X connect 50 0 97 0;
#X connect 50 1 97 0;
#X connect 50 1 52 1;
#X connect 51 0 112 0;
#X connect 51 1 112 1;
#X connect 53 0 51 2;
#X connect 54 0 51 2;
#X connect 55 0 51 2;
#X connect 56 0 53 0;
#X connect 57 0 54 0;
#X connect 58 0 55 0;
#X connect 59 0 179 0;
#X connect 60 0 59 0;
#X connect 60 0 218 0;
#X connect 61 0 115 1;
#X connect 61 0 125 1;
#X connect 61 0 116 1;
#X connect 62 0 115 1;
#X connect 62 0 125 1;
#X connect 62 0 116 1;
#X connect 63 0 115 1;
#X connect 63 0 125 1;
#X connect 63 0 116 1;
#X connect 64 0 115 1;
#X connect 64 0 125 1;
#X connect 64 0 116 1;
#X connect 65 0 115 1;
#X connect 65 0 125 1;
#X connect 65 0 116 1;
#X connect 66 0 115 1;
#X connect 66 0 125 1;
#X connect 66 0 116 1;
#X connect 67 0 115 1;
#X connect 67 0 125 1;
#X connect 67 0 116 1;
#X connect 68 0 115 1;
#X connect 68 0 125 1;
#X connect 68 0 116 1;
#X connect 69 0 115 1;
#X connect 69 0 125 1;
#X connect 69 0 116 1;
#X connect 70 0 115 1;
#X connect 70 0 125 1;
#X connect 70 0 116 1;
#X connect 71 0 115 1;
#X connect 71 0 125 1;
#X connect 71 0 116 1;
#X connect 72 0 115 1;
#X connect 72 0 125 1;
#X connect 72 0 116 1;
#X connect 73 0 115 1;
#X connect 73 0 125 1;
#X connect 73 0 116 1;
#X connect 74 0 115 1;
#X connect 74 0 125 1;
#X connect 74 0 116 1;
#X connect 75 0 115 1;
#X connect 75 0 125 1;
#X connect 75 0 116 1;
#X connect 76 0 115 1;
#X connect 76 0 125 1;
#X connect 76 0 116 1;
#X connect 77 0 115 1;
#X connect 77 0 125 1;
#X connect 77 0 116 1;
#X connect 78 0 115 1;
#X connect 78 0 125 1;
#X connect 78 0 116 1;
#X connect 79 0 115 1;
#X connect 79 0 125 1;
#X connect 79 0 116 1;
#X connect 80 0 115 1;
#X connect 80 0 125 1;
#X connect 80 0 116 1;
#X connect 81 0 115 1;
#X connect 81 0 125 1;
#X connect 81 0 116 1;
#X connect 82 0 115 1;
#X connect 82 0 125 1;
#X connect 82 0 116 1;
#X connect 83 0 115 1;
#X connect 83 0 125 1;
#X connect 83 0 116 1;
#X connect 84 0 115 1;
#X connect 84 0 125 1;
#X connect 84 0 116 1;
#X connect 85 0 115 1;
#X connect 85 0 125 1;
#X connect 85 0 116 1;
#X connect 86 0 88 0;
#X connect 87 0 86 0;
#X connect 88 0 90 0;
#X connect 88 1 56 0;
#X connect 88 2 57 0;
#X connect 88 3 58 0;
#X connect 89 0 51 2;
#X connect 90 0 89 0;
#X connect 91 0 87 0;
#X connect 91 0 294 0;
#X connect 91 0 178 0;
#X connect 91 0 177 0;
#X connect 91 0 208 0;
#X connect 91 0 354 0;
#X connect 92 0 219 0;
#X connect 93 0 295 0;
#X connect 94 0 92 0;
#X connect 95 0 92 0;
#X connect 98 0 97 0;
#X connect 99 0 97 0;
#X connect 100 0 97 0;
#X connect 101 0 97 0;
#X connect 102 0 99 0;
#X connect 103 0 100 0;
#X connect 104 0 98 0;
#X connect 106 0 107 0;
#X connect 107 0 117 0;
#X connect 107 0 120 0;
#X connect 107 0 122 0;
#X connect 107 1 119 0;
#X connect 107 1 118 0;
#X connect 107 1 122 0;
#X connect 107 2 121 0;
#X connect 107 2 120 0;
#X connect 107 2 118 0;
#X connect 112 0 113 0;
#X connect 113 0 50 0;
#X connect 114 0 126 0;
#X connect 115 0 123 0;
#X connect 116 0 124 0;
#X connect 117 0 115 0;
#X connect 118 0 115 0;
#X connect 119 0 125 0;
#X connect 120 0 125 0;
#X connect 121 0 116 0;
#X connect 122 0 116 0;
#X connect 123 0 179 0;
#X connect 124 0 179 0;
#X connect 125 0 179 0;
#X connect 126 0 50 0;
#X connect 128 0 231 0;
#X connect 143 0 223 0;
#X connect 144 0 224 0;
#X connect 145 0 225 0;
#X connect 146 0 226 0;
#X connect 147 0 227 0;
#X connect 148 0 228 0;
#X connect 149 0 229 0;
#X connect 150 0 230 0;
#X connect 151 0 232 0;
#X connect 152 0 233 0;
#X connect 153 0 234 0;
#X connect 154 0 235 0;
#X connect 155 0 236 0;
#X connect 156 0 222 0;
#X connect 167 0 238 0;
#X connect 168 0 239 0;
#X connect 169 0 240 0;
#X connect 170 0 241 0;
#X connect 171 0 242 0;
#X connect 172 0 245 0;
#X connect 173 0 246 0;
#X connect 174 0 243 0;
#X connect 175 0 237 0;
#X connect 176 0 244 0;
#X connect 177 0 51 1;
#X connect 178 0 106 0;
#X connect 179 0 1 0;
#X connect 180 0 1 0;
#X connect 181 0 1 0;
#X connect 182 0 1 0;
#X connect 183 0 1 0;
#X connect 184 0 1 0;
#X connect 185 0 1 0;
#X connect 186 0 1 0;
#X connect 187 0 1 0;
#X connect 188 0 1 0;
#X connect 189 0 180 0;
#X connect 190 0 180 0;
#X connect 191 0 181 0;
#X connect 192 0 181 0;
#X connect 193 0 182 0;
#X connect 194 0 182 0;
#X connect 195 0 183 0;
#X connect 196 0 183 0;
#X connect 197 0 184 0;
#X connect 198 0 184 0;
#X connect 199 0 185 0;
#X connect 200 0 185 0;
#X connect 201 0 186 0;
#X connect 202 0 186 0;
#X connect 203 0 187 0;
#X connect 204 0 187 0;
#X connect 205 0 188 0;
#X connect 206 0 188 0;
#X connect 207 0 209 0;
#X connect 208 0 207 0;
#X connect 209 0 189 0;
#X connect 209 0 192 0;
#X connect 209 0 194 0;
#X connect 209 0 196 0;
#X connect 209 0 198 0;
#X connect 209 0 200 0;
#X connect 209 0 202 0;
#X connect 209 0 204 0;
#X connect 209 0 206 0;
#X connect 209 0 280 0;
#X connect 209 0 308 0;
#X connect 209 0 328 0;
#X connect 209 1 190 0;
#X connect 209 1 191 0;
#X connect 209 1 194 0;
#X connect 209 1 196 0;
#X connect 209 1 198 0;
#X connect 209 1 200 0;
#X connect 209 1 202 0;
#X connect 209 1 204 0;
#X connect 209 1 206 0;
#X connect 209 1 210 0;
#X connect 209 1 318 0;
#X connect 209 1 331 0;
#X connect 209 2 193 0;
#X connect 209 2 190 0;
#X connect 209 2 192 0;
#X connect 209 2 196 0;
#X connect 209 2 198 0;
#X connect 209 2 200 0;
#X connect 209 2 202 0;
#X connect 209 2 204 0;
#X connect 209 2 206 0;
#X connect 209 2 211 0;
#X connect 209 2 319 0;
#X connect 209 2 334 0;
#X connect 209 3 195 0;
#X connect 209 3 190 0;
#X connect 209 3 192 0;
#X connect 209 3 194 0;
#X connect 209 3 198 0;
#X connect 209 3 200 0;
#X connect 209 3 202 0;
#X connect 209 3 204 0;
#X connect 209 3 206 0;
#X connect 209 3 212 0;
#X connect 209 3 320 0;
#X connect 209 3 337 0;
#X connect 209 4 197 0;
#X connect 209 4 190 0;
#X connect 209 4 192 0;
#X connect 209 4 194 0;
#X connect 209 4 196 0;
#X connect 209 4 200 0;
#X connect 209 4 202 0;
#X connect 209 4 204 0;
#X connect 209 4 206 0;
#X connect 209 4 213 0;
#X connect 209 4 321 0;
#X connect 209 4 340 0;
#X connect 209 5 199 0;
#X connect 209 5 190 0;
#X connect 209 5 192 0;
#X connect 209 5 194 0;
#X connect 209 5 196 0;
#X connect 209 5 198 0;
#X connect 209 5 202 0;
#X connect 209 5 204 0;
#X connect 209 5 206 0;
#X connect 209 5 214 0;
#X connect 209 5 322 0;
#X connect 209 5 343 0;
#X connect 209 6 201 0;
#X connect 209 6 190 0;
#X connect 209 6 192 0;
#X connect 209 6 194 0;
#X connect 209 6 196 0;
#X connect 209 6 198 0;
#X connect 209 6 200 0;
#X connect 209 6 204 0;
#X connect 209 6 206 0;
#X connect 209 6 215 0;
#X connect 209 6 323 0;
#X connect 209 6 346 0;
#X connect 209 7 203 0;
#X connect 209 7 190 0;
#X connect 209 7 192 0;
#X connect 209 7 194 0;
#X connect 209 7 196 0;
#X connect 209 7 198 0;
#X connect 209 7 200 0;
#X connect 209 7 202 0;
#X connect 209 7 206 0;
#X connect 209 7 216 0;
#X connect 209 7 324 0;
#X connect 209 7 349 0;
#X connect 209 7 316 0;
#X connect 209 8 205 0;
#X connect 209 8 190 0;
#X connect 209 8 192 0;
#X connect 209 8 194 0;
#X connect 209 8 196 0;
#X connect 209 8 198 0;
#X connect 209 8 200 0;
#X connect 209 8 202 0;
#X connect 209 8 204 0;
#X connect 209 8 217 0;
#X connect 209 8 325 0;
#X connect 209 8 352 0;
#X connect 210 0 181 1;
#X connect 211 0 182 1;
#X connect 212 0 183 1;
#X connect 213 0 184 1;
#X connect 214 0 185 1;
#X connect 215 0 186 1;
#X connect 216 0 187 1;
#X connect 217 0 188 1;
#X connect 218 0 221 0;
#X connect 219 0 1 0;
#X connect 220 0 114 0;
#X connect 221 0 92 0;
#X connect 221 1 280 0;
#X connect 221 1 210 0;
#X connect 221 1 211 0;
#X connect 221 1 212 0;
#X connect 221 1 213 0;
#X connect 221 1 214 0;
#X connect 221 1 215 0;
#X connect 221 1 216 0;
#X connect 221 1 217 0;
#X connect 222 0 85 0;
#X connect 222 1 218 0;
#X connect 223 0 83 0;
#X connect 223 1 218 0;
#X connect 224 0 81 0;
#X connect 224 1 218 0;
#X connect 225 0 80 0;
#X connect 225 1 218 0;
#X connect 226 0 78 0;
#X connect 226 1 218 0;
#X connect 227 0 76 0;
#X connect 227 1 218 0;
#X connect 228 0 74 0;
#X connect 228 1 218 0;
#X connect 229 0 61 0;
#X connect 229 1 218 0;
#X connect 230 0 63 0;
#X connect 230 1 218 0;
#X connect 231 0 65 0;
#X connect 231 1 218 0;
#X connect 232 0 66 0;
#X connect 232 1 218 0;
#X connect 233 0 68 0;
#X connect 233 1 218 0;
#X connect 234 0 70 0;
#X connect 234 1 218 0;
#X connect 235 0 72 0;
#X connect 235 1 218 0;
#X connect 236 0 73 0;
#X connect 236 1 218 0;
#X connect 237 0 69 0;
#X connect 237 1 218 0;
#X connect 238 0 84 0;
#X connect 238 1 218 0;
#X connect 239 0 82 0;
#X connect 239 1 218 0;
#X connect 240 0 79 0;
#X connect 240 1 218 0;
#X connect 241 0 77 0;
#X connect 241 1 218 0;
#X connect 242 0 75 0;
#X connect 242 1 218 0;
#X connect 243 0 67 0;
#X connect 243 1 218 0;
#X connect 244 0 71 0;
#X connect 244 1 218 0;
#X connect 245 0 62 0;
#X connect 245 1 218 0;
#X connect 246 0 64 0;
#X connect 246 1 218 0;
#X connect 247 0 355 0;
#X connect 249 0 251 0;
#X connect 249 0 253 0;
#X connect 249 0 255 0;
#X connect 249 0 258 0;
#X connect 249 0 260 0;
#X connect 249 0 262 0;
#X connect 249 0 265 0;
#X connect 250 0 1 0;
#X connect 276 0 253 0;
#X connect 276 0 257 0;
#X connect 276 0 260 0;
#X connect 276 0 264 0;
#X connect 276 0 284 0;
#X connect 276 0 289 0;
#X connect 277 0 255 0;
#X connect 277 0 257 0;
#X connect 277 0 259 0;
#X connect 277 0 262 0;
#X connect 277 0 264 0;
#X connect 277 0 252 0;
#X connect 278 0 112 2;
#X connect 278 0 114 1;
#X connect 279 0 51 0;
#X connect 280 0 180 1;
#X connect 281 0 266 0;
#X connect 282 0 267 0;
#X connect 283 0 268 0;
#X connect 284 0 269 0;
#X connect 285 0 270 0;
#X connect 286 0 271 0;
#X connect 287 0 272 0;
#X connect 288 0 273 0;
#X connect 289 0 274 0;
#X connect 290 0 275 0;
#X connect 291 0 251 0;
#X connect 291 0 252 0;
#X connect 291 0 253 0;
#X connect 291 0 254 0;
#X connect 291 0 255 0;
#X connect 291 0 256 0;
#X connect 291 0 257 0;
#X connect 291 0 258 0;
#X connect 291 0 259 0;
#X connect 291 0 260 0;
#X connect 291 0 261 0;
#X connect 291 0 262 0;
#X connect 291 0 263 0;
#X connect 291 0 264 0;
#X connect 291 0 265 0;
#X connect 292 0 266 0;
#X connect 292 0 267 0;
#X connect 292 0 268 0;
#X connect 292 0 269 0;
#X connect 292 0 270 0;
#X connect 292 0 271 0;
#X connect 292 0 272 0;
#X connect 292 0 273 0;
#X connect 292 0 274 0;
#X connect 292 0 275 0;
#X connect 293 0 92 0;
#X connect 294 0 93 0;
#X connect 295 0 94 0;
#X connect 295 1 95 0;
#X connect 295 2 293 0;
#X connect 295 3 296 0;
#X connect 296 0 92 0;
#X connect 297 0 9 1;
#X connect 297 1 6 0;
#X connect 297 1 27 0;
#X connect 297 2 7 0;
#X connect 297 2 32 0;
#X connect 297 3 279 0;
#X connect 297 4 278 0;
#X connect 297 5 220 0;
#X connect 297 6 298 0;
#X connect 297 7 96 0;
#X connect 308 0 309 0;
#X connect 318 0 310 0;
#X connect 319 0 311 0;
#X connect 320 0 312 0;
#X connect 321 0 313 0;
#X connect 322 0 314 0;
#X connect 323 0 315 0;
#X connect 324 0 316 0;
#X connect 325 0 317 0;
#X connect 326 0 309 0;
#X connect 327 0 326 0;
#X connect 328 0 326 0;
#X connect 329 0 310 0;
#X connect 330 0 329 0;
#X connect 331 0 329 0;
#X connect 332 0 311 0;
#X connect 333 0 332 0;
#X connect 334 0 332 0;
#X connect 335 0 312 0;
#X connect 336 0 335 0;
#X connect 337 0 335 0;
#X connect 338 0 313 0;
#X connect 339 0 338 0;
#X connect 340 0 338 0;
#X connect 341 0 314 0;
#X connect 342 0 341 0;
#X connect 343 0 341 0;
#X connect 344 0 315 0;
#X connect 345 0 344 0;
#X connect 346 0 344 0;
#X connect 348 0 347 0;
#X connect 349 0 347 0;
#X connect 350 0 317 0;
#X connect 351 0 350 0;
#X connect 352 0 350 0;
#X connect 353 0 326 1;
#X connect 353 0 329 1;
#X connect 353 0 332 1;
#X connect 353 0 335 1;
#X connect 353 0 338 1;
#X connect 353 0 341 1;
#X connect 353 0 347 1;
#X connect 353 0 344 1;
#X connect 353 0 350 1;
#X connect 354 0 247 0;
#X connect 355 0 249 0;
#X connect 355 1 276 0;
#X connect 355 2 277 0;
#X connect 355 3 291 0;
#X connect 355 3 292 0;
#X coords 0 -1 1 1 1443 358 2 463 -697;
#X restore 0 137 pd engine;
#X obj 52 28 tgl 67 0 \$0-connect \$0-connectUI CONNECT 14 31 0 10
#fc2828 #000000 #000000 0 1;
#X symbolatom 161 45 38 0 0 0 NAME - #0-chatname 0, f 38;
#X symbolatom 160 69 92 0 0 0 CHAT - #0-chattext 0, f 92;
