#N canvas -7 0 768 769 10;
#X floatatom 766 216 5 0 0 0 - - - 0, f 5;
#X symbolatom 819 207 10 0 0 0 - - - 0, f 10;
#X floatatom 792 243 5 0 0 0 - - - 0, f 5;
#X obj 600 297 change;
#X msg 600 326 broadcast auth?;
#X obj 716 319 sel 1 0;
#X obj 746 346 f;
#X obj 716 347 f;
#X msg 625 382 send \$1 authorizationOK;
#X msg 774 382 send \$1 authorizationError;
#X obj 1185 607 list prepend broadcast;
#X obj 1185 632 list trim;
#X obj 716 290 == 999;
#X obj 738 184 netserver 3007;
#X obj 716 256 route auth;
#X floatatom 979 184 5 0 0 0 - - - 0, f 5;
#X floatatom 1044 182 5 0 0 0 - - - 0, f 5;
#X obj 979 158 route %note% %channel% %instrument%;
#X msg 1176 269 broadcast %instrument% \$1;
#X floatatom 1117 191 5 0 0 0 - - - 0, f 5;
#X msg 902 270 broadcast %note% \$1;
#X msg 1034 300 broadcast %channel% \$1;
#X floatatom 1078 356 5 0 0 0 - - - 0, f 5;
#X msg 1026 428 broadcast %nousers% \$1;
#X obj 1012 381 change;
#X connect 0 0 3 0;
#X connect 0 0 22 0;
#X connect 2 0 6 1;
#X connect 2 0 7 1;
#X connect 3 0 4 0;
#X connect 4 0 13 0;
#X connect 5 0 7 0;
#X connect 5 1 6 0;
#X connect 6 0 9 0;
#X connect 7 0 8 0;
#X connect 8 0 13 0;
#X connect 9 0 13 0;
#X connect 10 0 11 0;
#X connect 11 0 13 0;
#X connect 12 0 5 0;
#X connect 13 0 14 0;
#X connect 13 1 0 0;
#X connect 13 2 2 0;
#X connect 13 3 1 0;
#X connect 14 0 12 0;
#X connect 14 1 17 0;
#X connect 15 0 20 0;
#X connect 16 0 21 0;
#X connect 17 0 15 0;
#X connect 17 1 16 0;
#X connect 17 2 19 0;
#X connect 17 3 10 0;
#X connect 18 0 13 0;
#X connect 19 0 18 0;
#X connect 20 0 13 0;
#X connect 21 0 13 0;
#X connect 22 0 23 0;
#X connect 22 0 24 0;
#X connect 23 0 13 0;
#X connect 24 0 23 0;
